<svg width="33" height="32" viewBox="0 0 33 32" fill="none" xmlns="http://www.w3.org/2000/svg">
<g id="Icon">
<path id="Vector" d="M7.43067 30C6.64004 30 5.96298 29.72 5.39948 29.16C4.83598 28.6 4.55471 27.9276 4.55567 27.1429V12.8571C4.55567 12.0714 4.83742 11.3986 5.40092 10.8386C5.96442 10.2786 6.641 9.99905 7.43067 10H8.86817V7.14286C8.86817 5.16667 9.56919 3.48191 10.9712 2.08857C12.3733 0.695239 14.0681 -0.000951405 16.0557 9.758e-07C18.0442 9.758e-07 19.7395 0.696668 21.1415 2.09C22.5436 3.48333 23.2441 5.16762 23.2432 7.14286V10H24.6807C25.4713 10 26.1483 10.28 26.7118 10.84C27.2753 11.4 27.5566 12.0724 27.5557 12.8571V27.1429C27.5557 27.9286 27.2739 28.6014 26.7104 29.1614C26.1469 29.7214 25.4703 30.0009 24.6807 30H7.43067ZM7.43067 27.1429H24.6807V12.8571H7.43067V27.1429ZM16.0557 22.8571C16.8463 22.8571 17.5234 22.5771 18.0869 22.0171C18.6504 21.4571 18.9316 20.7848 18.9307 20C18.9307 19.2143 18.6489 18.5414 18.0854 17.9814C17.5219 17.4214 16.8453 17.1419 16.0557 17.1429C15.265 17.1429 14.588 17.4229 14.0245 17.9829C13.461 18.5429 13.1797 19.2152 13.1807 20C13.1807 20.7857 13.4624 21.4586 14.0259 22.0186C14.5894 22.5786 15.266 22.8581 16.0557 22.8571ZM11.7432 10H20.3682V7.14286C20.3682 5.95238 19.9489 4.94048 19.1104 4.10714C18.2718 3.27381 17.2536 2.85714 16.0557 2.85714C14.8577 2.85714 13.8395 3.27381 13.001 4.10714C12.1624 4.94048 11.7432 5.95238 11.7432 7.14286V10Z" fill="#918F90"/>
</g>
</svg>
