<svg width="31" height="30" viewBox="0 0 31 30" fill="none" xmlns="http://www.w3.org/2000/svg">
<g id="mdi:clock">
<path id="Vector" d="M15.5 27.5C13.8585 27.5 12.233 27.1767 10.7165 26.5485C9.19989 25.9203 7.8219 24.9996 6.66117 23.8388C4.31696 21.4946 3 18.3152 3 15C3 11.6848 4.31696 8.50537 6.66117 6.16117C7.8219 5.00043 9.19989 4.07969 10.7165 3.4515C12.233 2.82332 13.8585 2.5 15.5 2.5C18.8152 2.5 21.9946 3.81696 24.3388 6.16117C26.683 8.50537 28 11.6848 28 15C28 16.6415 27.6767 18.267 27.0485 19.7835C26.4203 21.3001 25.4996 22.6781 24.3388 23.8388C23.1781 24.9996 21.8001 25.9203 20.2835 26.5485C18.767 27.1767 17.1415 27.5 15.5 27.5ZM20.75 9.75L14.25 13.75V21.25H16.125V14.75L21.75 11.375L20.75 9.75Z" fill="#918F90"/>
</g>
</svg>
