<svg width="32" height="29" viewBox="0 0 32 29" fill="none" xmlns="http://www.w3.org/2000/svg">
<g id="material-symbols:handshake-outline">
<path id="Vector" d="M15.8938 25.8333C15.9799 25.8333 16.066 25.8118 16.1521 25.7688C16.2382 25.7257 16.3028 25.6827 16.3459 25.6396L26.9375 15.0479C27.1959 14.7896 27.3844 14.499 27.5033 14.1761C27.6221 13.8531 27.6811 13.5302 27.6802 13.2073C27.6802 12.8629 27.6208 12.5343 27.502 12.2218C27.3832 11.9092 27.195 11.6349 26.9375 11.399L21.4479 5.90939C21.2111 5.65105 20.9364 5.46247 20.6239 5.34364C20.3113 5.2248 19.9836 5.16582 19.6409 5.16668C19.318 5.16668 18.9951 5.22609 18.6722 5.34493C18.3492 5.46376 18.0586 5.65191 17.8003 5.90939L17.4451 6.26459L19.8347 8.68647C20.1576 8.98786 20.3944 9.3323 20.5451 9.7198C20.6958 10.1073 20.7711 10.5163 20.7711 10.9469C20.7711 11.8511 20.4646 12.6101 19.8514 13.2241C19.2383 13.8381 18.4793 14.1446 17.5742 14.1438C17.1437 14.1438 16.7291 14.0684 16.3304 13.9177C15.9317 13.767 15.5821 13.541 15.2815 13.2396L12.8584 10.85L7.20732 16.5011C7.14274 16.5656 7.09408 16.6358 7.06136 16.7116C7.02864 16.7874 7.01271 16.8675 7.01357 16.9518C7.01357 17.1241 7.07815 17.2804 7.20732 17.4207C7.33648 17.5611 7.48718 17.6308 7.6594 17.63C7.74551 17.63 7.83162 17.6084 7.91773 17.5654C8.00385 17.5223 8.06843 17.4793 8.11149 17.4362L12.5032 13.0446L14.3115 14.8529L9.95211 19.2446C9.88753 19.3091 9.83887 19.3793 9.80615 19.4551C9.77343 19.5309 9.7575 19.6114 9.75836 19.6966C9.75836 19.8689 9.82294 20.0196 9.95211 20.1487C10.0813 20.2779 10.232 20.3425 10.4042 20.3425C10.4903 20.3425 10.5764 20.3209 10.6625 20.2779C10.7486 20.2348 10.8132 20.1918 10.8563 20.1487L15.2479 15.7893L17.0563 17.5977L12.6969 21.9893C12.6323 22.0324 12.5837 22.097 12.5509 22.1831C12.5182 22.2692 12.5023 22.3553 12.5032 22.4414C12.5032 22.6137 12.5677 22.7643 12.6969 22.8935C12.8261 23.0227 12.9768 23.0873 13.149 23.0873C13.2351 23.0873 13.316 23.0709 13.3918 23.0382C13.4676 23.0055 13.5373 22.9572 13.6011 22.8935L17.9927 18.5341L19.8011 20.3425L15.4094 24.7341C15.3448 24.7987 15.2962 24.8685 15.2634 24.9434C15.2307 25.0183 15.2148 25.0992 15.2157 25.1862C15.2157 25.3584 15.2858 25.5091 15.4262 25.6383C15.5666 25.7675 15.7224 25.8333 15.8938 25.8333ZM15.8615 28.4167C15.065 28.4167 14.3597 28.1527 13.7457 27.6249C13.1318 27.097 12.7714 26.4353 12.6646 25.6396C11.9327 25.532 11.3191 25.2306 10.824 24.7354C10.3288 24.2403 10.0275 23.6267 9.91982 22.8948C9.18787 22.7872 8.5795 22.4802 8.09469 21.9738C7.60989 21.4675 7.3141 20.8596 7.20732 20.15C6.38926 20.0424 5.7219 19.6872 5.20523 19.0844C4.68857 18.4816 4.43023 17.7712 4.43023 16.9531C4.43023 16.5226 4.51118 16.1084 4.67307 15.7106C4.83496 15.3127 5.06616 14.9627 5.36669 14.6604L12.8584 7.20105L17.0886 11.4313C17.1316 11.4958 17.1962 11.5445 17.2823 11.5772C17.3684 11.6099 17.4545 11.6259 17.5407 11.625C17.7344 11.625 17.8959 11.566 18.025 11.4481C18.1542 11.3301 18.2188 11.1738 18.2188 10.9792C18.2188 10.8931 18.2024 10.807 18.1697 10.7208C18.137 10.6347 18.0887 10.5701 18.025 10.5271L13.4073 5.90939C13.1705 5.65105 12.8962 5.46247 12.5845 5.34364C12.2728 5.2248 11.9443 5.16582 11.599 5.16668C11.2761 5.16668 10.9532 5.22609 10.6302 5.34493C10.3073 5.46376 10.0167 5.65191 9.75836 5.90939L5.20523 10.4948C5.01148 10.6886 4.85003 10.9146 4.72086 11.1729C4.59169 11.4313 4.50558 11.6896 4.46253 11.9479C4.41947 12.2063 4.41947 12.4702 4.46253 12.7397C4.50558 13.0092 4.59169 13.262 4.72086 13.4979L2.84794 15.3708C2.48197 14.8757 2.21287 14.3323 2.04065 13.7408C1.86843 13.1492 1.80385 12.5516 1.8469 11.9479C1.88996 11.3451 2.04065 10.7583 2.29898 10.1874C2.55732 9.61647 2.91253 9.1054 3.36461 8.65418L7.91773 4.10105C8.4344 3.60591 9.01049 3.22918 9.64599 2.97084C10.2815 2.71251 10.9325 2.58334 11.599 2.58334C12.2663 2.58334 12.9178 2.71251 13.5533 2.97084C14.1888 3.22918 14.7537 3.60591 15.2479 4.10105L15.6032 4.45626L15.9584 4.10105C16.475 3.60591 17.0511 3.22918 17.6866 2.97084C18.3221 2.71251 18.9731 2.58334 19.6396 2.58334C20.307 2.58334 20.9584 2.71251 21.5939 2.97084C22.2294 3.22918 22.7943 3.60591 23.2886 4.10105L28.7459 9.55834C29.241 10.0535 29.6177 10.624 29.8761 11.2698C30.1344 11.9156 30.2636 12.5722 30.2636 13.2396C30.2636 13.907 30.1344 14.5584 29.8761 15.1939C29.6177 15.8294 29.241 16.3943 28.7459 16.8886L18.1542 27.4479C17.8528 27.7493 17.5028 27.9861 17.1041 28.1583C16.7054 28.3306 16.2912 28.4167 15.8615 28.4167Z" fill="#918F90"/>
</g>
</svg>
