<svg width="31" height="30" viewBox="0 0 31 30" fill="none" xmlns="http://www.w3.org/2000/svg">
<rect width="31" height="30" fill="#F5F5F5"/>
<g id="Desktop View" clip-path="url(#clip0_0_1)">
<rect width="1512" height="5152" transform="translate(-216 -4274)" fill="white"/>
<g id="Body">
<g id="div.row" clip-path="url(#clip1_0_1)">
<g id="div.col-sm-12">
<g id="div.bottom_contact">
<g id="i.icon_pin_alt">
<rect x="-14" y="-10.5" width="51" height="51" stroke="#918F90" stroke-dasharray="3 2"/>
<g id="Icon" clip-path="url(#clip2_0_1)">
<path id="Vector" d="M7.60633 13.9514C7.60633 13.9514 7.8442 14.1893 8.31992 14.665C8.79565 15.1407 9.70342 15.3786 11.0432 15.3786C12.383 15.3786 13.5287 14.9029 14.4801 13.9514C15.4316 13 15.9073 11.8543 15.9073 10.5145C15.9073 9.17471 15.4316 8.02908 14.4801 7.07762C13.5287 6.12617 12.383 5.65044 11.0432 5.65044C9.70342 5.65044 8.55779 6.12617 7.60633 7.07762C6.65488 8.02908 6.17915 9.17471 6.17915 10.5145C6.17915 11.8543 6.65488 13 7.60633 13.9514ZM8.91701 8.3883C8.91701 8.3883 9.06264 8.24267 9.3539 7.95141C9.64517 7.66015 10.2083 7.51451 11.0432 7.51451C11.8782 7.51451 12.5869 7.80578 13.1694 8.3883C13.752 8.97083 14.0432 9.67956 14.0432 10.5145C14.0432 11.3495 13.752 12.0582 13.1694 12.6407C12.5869 13.2233 11.8782 13.5145 11.0432 13.5145C10.2083 13.5145 9.49954 13.2233 8.91701 12.6407C8.33449 12.0582 8.04323 11.3495 8.04323 10.5145C8.04323 9.67956 8.33449 8.97083 8.91701 8.3883ZM10.3733 29.3592C10.4898 29.5145 10.6452 29.6504 10.8393 29.7669C10.9558 29.8058 11.0529 29.8252 11.1306 29.8252C11.2083 29.8252 11.3054 29.8058 11.4219 29.7669C11.5772 29.6504 11.7325 29.5145 11.8879 29.3592C12.1209 29.1262 12.4316 28.7767 12.8199 28.3106C13.2083 27.8446 13.917 26.9223 14.9461 25.5436C15.9753 24.165 16.8976 22.8058 17.7131 21.466C18.5287 20.1262 19.3054 18.5631 20.0432 16.7767C20.7811 14.9902 21.2277 13.3203 21.383 11.7669C21.4607 11.3009 21.4995 10.8737 21.4995 10.4854C21.4995 7.6116 20.4801 5.15529 18.4413 3.11646C16.4024 1.07762 13.9364 0.0582047 11.0432 0.0582047C8.15002 0.0582047 5.684 1.07762 3.64517 3.11646C1.60633 5.15529 0.586914 7.6116 0.586914 10.4854C0.586914 10.9126 0.625749 11.3592 0.703419 11.8252C0.858759 13.3398 1.29565 14.9805 2.0141 16.7475C2.73255 18.5145 3.54808 20.1165 4.4607 21.5534C5.37332 22.9902 6.28594 24.3106 7.19857 25.5145C8.11119 26.7184 8.85876 27.6601 9.44128 28.3398C10.0238 29.0194 10.3345 29.3592 10.3733 29.3592ZM4.95585 4.42714C4.95585 4.42714 5.37332 4.00966 6.20827 3.17471C7.04323 2.33976 8.64517 1.92228 11.0141 1.92228C13.383 1.92228 15.4122 2.75723 17.1015 4.42714C18.7908 6.09704 19.6355 8.11646 19.6355 10.4854C19.6355 10.7961 19.5966 11.165 19.519 11.5922C19.3636 13.0291 18.9461 14.5922 18.2665 16.2815C17.5869 17.9708 16.7423 19.5728 15.7325 21.0873C14.7228 22.6019 13.8685 23.8349 13.1694 24.7864C12.4704 25.7378 11.7908 26.6213 11.1306 27.4368C10.4316 26.6213 9.72284 25.7378 9.00439 24.7864C8.28594 23.8349 7.42187 22.6019 6.41216 21.0873C5.40245 19.5728 4.53837 17.9708 3.81992 16.2815C3.10148 14.5922 2.66458 13.0291 2.50924 11.5922C2.47041 11.165 2.45099 10.7961 2.45099 10.4854C2.45099 8.11646 3.28594 6.09704 4.95585 4.42714Z" fill="#918F90"/>
</g>
</g>
</g>
</g>
</g>
</g>
</g>
<defs>
<clipPath id="clip0_0_1">
<rect width="1512" height="5152" fill="white" transform="translate(-216 -4274)"/>
</clipPath>
<clipPath id="clip1_0_1">
<rect width="1140" height="373" fill="white" transform="translate(-29.5 -16)"/>
</clipPath>
<clipPath id="clip2_0_1">
<rect width="30" height="30" fill="white" transform="matrix(1 0 0 -1 0.5 30)"/>
</clipPath>
</defs>
</svg>
