<svg width="33" height="32" viewBox="0 0 33 32" fill="none" xmlns="http://www.w3.org/2000/svg">
<g id="Icon" clip-path="url(#clip0_78_63)">
<path id="Vector" d="M13.0756 8.51262C13.0756 8.51262 13.3242 8.26408 13.8213 7.76699C14.3183 7.26991 14.5669 6.35858 14.5669 5.03301C14.5669 3.70745 14.0698 2.54757 13.0756 1.5534C12.0814 0.559225 10.9216 0.0621376 9.59601 0.0621376C8.27044 0.0621376 7.11057 0.559225 6.1164 1.5534C5.12222 2.54757 4.62514 3.70745 4.62514 5.03301C4.62514 6.35858 5.12222 7.51845 6.1164 8.51262C7.11057 9.5068 8.27044 10.0039 9.59601 10.0039C10.9216 10.0039 12.0814 9.5068 13.0756 8.51262ZM18.0465 23.9223C18.0465 20.1528 17.2077 17.222 15.53 15.1301C13.8523 13.0382 11.7915 11.9922 9.34747 11.9922C6.90345 11.9922 4.84261 13.0382 3.16494 15.1301C1.48727 17.222 0.648438 20.1528 0.648438 23.9223C0.648438 25.6207 2.09828 26.8324 4.99795 27.5573C7.89763 28.2822 10.7973 28.2822 13.697 27.5573C16.5967 26.8324 18.0465 25.6207 18.0465 23.9223ZM20.5319 12.3651C20.5319 12.3651 20.7805 12.6136 21.2776 13.1107C21.7747 13.6078 22.686 13.8563 24.0115 13.8563C25.3371 13.8563 26.497 13.3592 27.4912 12.3651C28.4853 11.3709 28.9824 10.211 28.9824 8.88544C28.9824 7.55987 28.4853 6.4 27.4912 5.40583C26.497 4.41165 25.3371 3.91457 24.0115 3.91457C22.686 3.91457 21.5261 4.41165 20.5319 5.40583C19.5378 6.4 19.0407 7.55987 19.0407 8.88544C19.0407 10.211 19.5378 11.3709 20.5319 12.3651ZM23.763 15.8447C22.396 15.8447 21.1119 16.2175 19.9106 16.9631C20.6562 19.0343 21.029 21.354 21.029 23.9223C21.029 26.6149 19.4135 28.6032 16.1824 29.8874C17.4251 30.923 19.3617 31.5651 21.9921 31.8136C24.6225 32.0621 27.0251 31.8136 29.1999 31.068C31.3747 30.3223 32.462 29.2246 32.462 27.7748C32.462 24.0052 31.6232 21.0744 29.9455 18.9825C28.2679 16.8906 26.207 15.8447 23.763 15.8447Z" fill="#918F90"/>
</g>
<defs>
<clipPath id="clip0_78_63">
<rect width="32" height="32" fill="white" transform="matrix(1 0 0 -1 0.555664 32)"/>
</clipPath>
</defs>
</svg>
