<svg width="31" height="30" viewBox="0 0 31 30" fill="none" xmlns="http://www.w3.org/2000/svg">
<g id="Icon" clip-path="url(#clip0_78_191)">
<path id="Vector" d="M11.6257 7.57278C11.5869 6.79608 11.383 6.05821 11.0141 5.35918C10.6452 4.66016 10.2568 4.08734 9.84905 3.64074C9.44128 3.19414 8.98497 2.78637 8.48012 2.41744C7.97526 2.04851 7.61604 1.79608 7.40245 1.66016C7.18886 1.52423 7.00439 1.43686 6.84905 1.39802C6.65488 1.32035 6.48012 1.30093 6.32478 1.33977C5.39274 1.49511 4.55779 1.72812 3.81992 2.0388C3.08206 2.34948 2.52866 2.66016 2.15973 2.97083C1.7908 3.28152 1.47041 3.62132 1.19856 3.99025C0.92672 4.35918 0.761671 4.61161 0.703419 4.74753C0.645166 4.88346 0.61604 5.00967 0.61604 5.12617C0.577205 5.28152 0.577205 5.45627 0.61604 5.65045C1.43157 8.13589 2.40245 10.4466 3.52866 12.5825C4.65488 14.7184 5.76167 16.5048 6.84905 17.9417C7.93643 19.3786 9.17915 20.699 10.5772 21.9029C11.9753 23.1068 13.1791 24.0388 14.1889 24.699C15.1986 25.3592 16.3539 25.9805 17.6549 26.5631C18.9558 27.1456 19.9073 27.5339 20.5092 27.7281C21.1112 27.9223 21.8588 28.1359 22.752 28.3689C23.1403 28.4854 23.3927 28.5631 23.5092 28.6019C23.5869 28.6407 23.684 28.6602 23.8005 28.6602C23.917 28.6602 24.0335 28.6213 24.15 28.5437C24.2665 28.5048 24.4024 28.4369 24.5578 28.3398C24.7131 28.2427 24.9753 28.0388 25.3442 27.7281C25.7131 27.4174 26.0432 27.0582 26.3345 26.6504C26.6257 26.2427 26.9267 25.6893 27.2374 24.9903C27.5481 24.2912 27.7811 23.5145 27.9364 22.6602C27.9364 22.466 27.8976 22.2718 27.8199 22.0776C27.7811 22 27.7131 21.8835 27.616 21.7281C27.519 21.5728 27.3054 21.3106 26.9753 20.9417C26.6452 20.5728 26.2762 20.2233 25.8685 19.8932C25.4607 19.5631 24.917 19.2233 24.2374 18.8737C23.5578 18.5242 22.8296 18.2524 22.0529 18.0582C21.7423 17.9805 21.451 18.0388 21.1791 18.233C19.4316 19.7475 18.1112 20.5825 17.218 20.7378C14.9267 19.6116 12.985 18.097 11.3927 16.1941C9.80051 14.2912 8.94614 12.9514 8.82963 12.1747C8.82963 11.9417 9.08206 11.4271 9.58691 10.631C10.0918 9.83491 10.6937 9.04851 11.3927 8.27181C11.5869 8.07763 11.6646 7.84462 11.6257 7.57278Z" fill="#918F90"/>
</g>
<defs>
<clipPath id="clip0_78_191">
<rect width="30" height="30" fill="white" transform="matrix(1 0 0 -1 0.5 30)"/>
</clipPath>
</defs>
</svg>
