<svg width="100%" height="100%" viewBox="0 0 55 54" fill="none" xmlns="http://www.w3.org/2000/svg">
<g id="pseudo">
<path id="Vector" d="M42.4431 36.6118L36.9666 26.4629C37.5253 25.1921 37.8379 23.7878 37.8379 22.3102C37.8379 16.6159 33.2312 12 27.5493 12C21.866 12 17.2598 16.6164 17.2598 22.3102C17.2598 23.8234 17.5878 25.2592 18.1718 26.5534L12.6709 36.6071C12.4935 36.9302 12.523 37.3288 12.7448 37.6237C12.9671 37.9177 13.3423 38.056 13.7007 37.9717L18.3982 36.8918L20.0059 41.3792C20.1313 41.728 20.4491 41.97 20.8173 41.9972C20.8412 41.9991 20.8641 42 20.8866 42C21.0558 41.9999 21.2218 41.9539 21.367 41.8668C21.5122 41.7797 21.6311 41.6548 21.711 41.5053L26.4983 32.5676C26.8474 32.603 27.198 32.6207 27.5488 32.6206C27.874 32.6206 28.195 32.6037 28.5122 32.5737L33.4034 41.5124C33.4899 41.6708 33.6203 41.8008 33.7789 41.8868C33.9374 41.9727 34.1174 42.0109 34.2971 41.9967C34.6644 41.9672 34.9807 41.7257 35.1051 41.3787L36.7129 36.8913L41.4103 37.9712C41.7706 38.0584 42.1422 37.9182 42.3644 37.6251C42.5876 37.3325 42.6176 36.9358 42.443 36.6118H42.4431ZM21.0568 38.7622L19.8795 35.4752C19.7185 35.0283 19.2516 34.768 18.7892 34.8782L15.3149 35.6768L19.275 28.4388C20.5791 30.2042 22.432 31.5359 24.5812 32.1839L21.0568 38.7622ZM19.1397 22.3102C19.1397 17.6639 22.9126 13.8836 27.5496 13.8836C32.1862 13.8836 35.9586 17.6639 35.9586 22.3102C35.9586 26.9566 32.1862 30.7378 27.5496 30.7378C22.9121 30.7378 19.1397 26.9566 19.1397 22.3102ZM36.3217 34.8782C35.8575 34.7685 35.3924 35.0283 35.2315 35.4751L34.0462 38.786L30.4446 32.205C32.6509 31.5574 34.5488 30.1906 35.8697 28.3736L39.8133 35.6805L36.3217 34.8782Z" fill="#918F90"/>
</g>
</svg>
