<svg width="33" height="32" viewBox="0 0 33 32" fill="none" xmlns="http://www.w3.org/2000/svg">
<g id="carbon:security">
<path id="Vector" d="M14.5557 16.59L11.9657 14L10.5557 15.41L14.5557 19.41L22.5557 11.41L21.1457 10L14.5557 16.59Z" fill="#918F90"/>
<path id="Vector_2" d="M16.5557 30L10.3797 26.707C8.619 25.7703 7.14664 24.3719 6.12059 22.6617C5.09454 20.9516 4.55355 18.9943 4.55567 17V4C4.5562 3.46973 4.76708 2.96133 5.14204 2.58637C5.517 2.21141 6.0254 2.00053 6.55567 2H26.5557C27.0859 2.00053 27.5943 2.21141 27.9693 2.58637C28.3443 2.96133 28.5551 3.46973 28.5557 4V17C28.5578 18.9943 28.0168 20.9516 26.9907 22.6617C25.9647 24.3719 24.4923 25.7703 22.7317 26.707L16.5557 30ZM6.55567 4V17C6.55401 18.6318 6.99677 20.2333 7.83643 21.6325C8.67609 23.0317 9.88095 24.1758 11.3217 24.942L16.5557 27.733L21.7897 24.943C23.2305 24.1767 24.4355 23.0324 25.2752 21.633C26.1148 20.2336 26.5575 18.632 26.5557 17V4H6.55567Z" fill="#918F90"/>
</g>
</svg>
